<?xml version="1.0" encoding="utf-8"?>
<!-- Generator: Adobe Illustrator 16.0.0, SVG Export Plug-In . SVG Version: 6.00 Build 0)  -->
<!DOCTYPE svg PUBLIC "-//W3C//DTD SVG 1.1//EN" "http://www.w3.org/Graphics/SVG/1.1/DTD/svg11.dtd">
<svg version="1.1" id="Wallet" xmlns="http://www.w3.org/2000/svg" xmlns:xlink="http://www.w3.org/1999/xlink" x="0px" y="0px"
	 width="960px" height="560px" viewBox="0 0 960 560" enable-background="new 0 0 960 560" xml:space="preserve">
<g>
	<g>
		<path fill="#231F20" d="M508.288,318.065v5.972h-46.415l0.045-64.91h-23.523l-0.03,64.937l-21.177-0.013l-0.054-64.924
			l-21.359-0.014l0.042-21.196h87.28l-0.363,64.912h15.621l0.171,0.405c2.229,5.134,5.688,11.045,9.546,14.643L508.288,318.065z"/>
	</g>
	<g>
		<rect x="363.93" y="237.86" fill="#231F20" width="21.206" height="86.12"/>
	</g>
	<path fill="#231F20" d="M548.428,237.771c-31.657,0-40.11,26.709-40.11,42.493c0,16.034,8.453,43.186,40.11,43.186
		c18.706,0,40.551-11.305,40.551-43.186C588.979,264.48,580.436,237.771,548.428,237.771z M558.554,302.922H537.52l4.508-20.564
		l-0.44-0.306c-3.434-2.37-6.385-6.123-6.385-10.259c0-6.976,5.714-12.652,12.739-12.652c7.026,0,12.741,5.676,12.741,12.652
		c0,4.044-2.886,7.881-6.21,10.259l-0.427,0.306L558.554,302.922z"/>
	<polygon fill="#231F20" points="588.726,323.923 613.734,323.923 629.718,298.473 645.701,323.923 670.709,323.923 
		643.688,280.924 670.738,237.881 645.729,237.881 629.746,263.331 613.763,237.881 588.754,237.881 615.774,280.88 	"/>
	<path fill="#231F20" d="M353.211,298.14c0-5.854-3.144-13.411-8.967-15.881l-4.141-1.842l4.026-1.963
		c5.375-2.553,8.804-10.847,8.804-15.437c0-9.379-3.587-21.173-20.577-24.301l-0.041-11.46H311.11l0.04,10.605l-0.485-0.02h-19.434
		c-0.127,0-0.231,0.104-0.231,0.231v85.731c0,0.128,0.104,0.232,0.231,0.232h19.434l0.485-0.021l-0.013,10.571h21.207l0.012-11.52
		C347.72,319.846,353.211,308.109,353.211,298.14z M311.127,256.878h12.925c8.078,0,8.218,6.701,8.219,6.768
		c0,1.919-0.561,8.196-7.778,8.403h-13.365V256.878z M311.127,289.83h13.352c7.229,0.205,7.792,6.066,7.792,7.857
		c0,1.985-1.477,7.138-8.219,7.138h-12.925V289.83z"/>
</g>
</svg>
